<?xml version="1.0" encoding="UTF-8"?>
<!DOCTYPE svg PUBLIC "-//W3C//DTD SVG 1.1//EN" "http://www.w3.org/Graphics/SVG/1.1/DTD/svg11.dtd">
<svg xmlns="http://www.w3.org/2000/svg" version="1.1" width="300px" height="341px" style="shape-rendering:geometricPrecision; text-rendering:geometricPrecision; image-rendering:optimizeQuality; fill-rule:evenodd; clip-rule:evenodd" xmlns:xlink="http://www.w3.org/1999/xlink">
<g><path style="opacity:0.066" fill="#fffec0" d="M 132.5,-0.5 C 133.833,-0.5 135.167,-0.5 136.5,-0.5C 128.834,8.83263 120.5,17.4993 111.5,25.5C 110.472,23.6385 108.972,22.3052 107,21.5C 105.37,12.5331 100.203,9.36644 91.5,12C 86.4892,15.0015 82.9892,19.1681 81,24.5C 79.4315,29.6253 80.9315,33.4586 85.5,36C 88.0891,37.1965 90.7558,38.1965 93.5,39C 94.8993,40.0616 95.8993,41.395 96.5,43C 90.3209,50.3431 83.9876,57.5098 77.5,64.5C 73.6966,68.6254 70.0299,72.6254 66.5,76.5C 59.2358,84.9369 51.7358,93.2702 44,101.5C 43.3333,104.5 43.3333,107.5 44,110.5C 47.9324,112.589 52.099,114.089 56.5,115C 59.0867,116.525 59.9201,118.692 59,121.5C 56.7114,124.827 54.378,128.161 52,131.5C 44.1658,139.221 39.4992,137.554 38,126.5C 36.8589,124.391 35.3589,122.558 33.5,121C 31.1667,120.333 28.8333,120.333 26.5,121C 17.0811,129.866 8.08114,139.032 -0.5,148.5C -0.5,146.833 -0.5,145.167 -0.5,143.5C 6.96696,135.864 14.3003,128.031 21.5,120C 26.3759,117.264 31.3759,116.93 36.5,119C 39.2083,123.584 42.0416,128.084 45,132.5C 49.0317,128.968 52.5317,124.968 55.5,120.5C 55.1667,119.833 54.8333,119.167 54.5,118.5C 49.6386,116.82 45.1386,114.486 41,111.5C 39.5321,105.14 40.8654,99.4738 45,94.5C 52.0421,87.6256 58.8754,80.6256 65.5,73.5C 73.985,63.1814 82.6516,53.0148 91.5,43C 87.2766,40.3007 83.1099,37.4674 79,34.5C 76.8782,29.3476 77.2115,24.3476 80,19.5C 82.4626,16.0354 85.2959,12.8688 88.5,10C 93.5,8 98.5,8 103.5,10C 106.211,13.9224 109.045,17.7557 112,21.5C 119.406,14.598 126.239,7.26468 132.5,-0.5 Z"/></g>
<g><path style="opacity:0.066" fill="#fffec0" d="M 144.5,-0.5 C 146.167,-0.5 147.833,-0.5 149.5,-0.5C 156.828,6.93243 164.328,14.2658 172,21.5C 175.354,26.6656 176.354,32.3323 175,38.5C 171.377,40.7225 167.877,43.0558 164.5,45.5C 166.984,48.4843 169.65,51.3176 172.5,54C 173.449,54.6172 174.282,54.4506 175,53.5C 176.461,49.768 178.294,46.268 180.5,43C 185.167,41 189.833,41 194.5,43C 213.222,60.2654 232.056,77.4321 251,94.5C 254.679,76.7605 263.846,73.2605 278.5,84C 284.292,88.0948 287.625,93.5948 288.5,100.5C 288.448,103.322 287.781,105.989 286.5,108.5C 282.463,111.18 278.463,113.846 274.5,116.5C 283.154,123.82 291.487,131.487 299.5,139.5C 299.5,140.833 299.5,142.167 299.5,143.5C 289.507,134.168 279.507,124.835 269.5,115.5C 269.977,114.522 270.643,113.689 271.5,113C 287.864,107.832 289.864,99.1652 277.5,87C 262.941,76.0414 254.941,79.8747 253.5,98.5C 251.801,98.6602 250.134,98.4935 248.5,98C 240.779,89.6125 232.779,81.6125 224.5,74C 223.207,73.51 221.873,73.3433 220.5,73.5C 219.265,70.9203 217.599,68.587 215.5,66.5C 208.22,58.6666 200.22,51.4999 191.5,45C 188.5,44.3333 185.5,44.3333 182.5,45C 181.042,49.334 179.209,53.5007 177,57.5C 176.311,58.3567 175.478,59.0233 174.5,59.5C 169.194,55.6938 164.36,51.3605 160,46.5C 159.333,45.5 159.333,44.5 160,43.5C 163.378,40.9774 167.045,38.9774 171,37.5C 173.19,35.2172 173.857,32.5505 173,29.5C 167.167,19.6667 159.333,11.8333 149.5,6C 147.461,4.07365 145.794,1.90699 144.5,-0.5 Z"/></g>
<g><path style="opacity:1" fill="#0481c2" d="M 212.5,66.5 C 214.127,68.6298 215.96,70.6298 218,72.5C 212.664,80.371 206.331,87.7043 199,94.5C 197.267,96.7231 195.767,99.0565 194.5,101.5C 194.876,103.383 195.876,104.883 197.5,106C 201.068,107.618 204.735,108.951 208.5,110C 212.182,111.32 213.682,113.82 213,117.5C 210.223,123.943 205.723,128.777 199.5,132C 197.5,132.667 195.5,132.667 193.5,132C 190.412,127.157 187.079,122.491 183.5,118C 181.833,117.333 180.167,117.333 178.5,118C 168.68,127.654 159.013,137.487 149.5,147.5C 144.354,143.522 139.354,139.355 134.5,135C 128.895,130.234 124.228,124.734 120.5,118.5C 122.9,114.796 126.233,112.296 130.5,111C 135.649,106.731 135.816,102.231 131,97.5C 126.371,91.8652 120.871,87.3652 114.5,84C 111.503,83.2446 109.003,84.0779 107,86.5C 105.167,90.3333 103.333,94.1667 101.5,98C 99.5,98.6667 97.5,98.6667 95.5,98C 87.6667,90.8333 79.8333,83.6667 72,76.5C 71.6848,75.0922 72.0181,73.7589 73,72.5C 77.037,68.631 80.8704,64.631 84.5,60.5C 87.7684,56.7288 91.2684,53.0622 95,49.5C 99.8192,45.0967 99.6526,40.93 94.5,37C 91.1963,34.788 87.6963,32.9546 84,31.5C 83.5436,23.897 86.7103,18.0636 93.5,14C 95.1667,13.3333 96.8333,13.3333 98.5,14C 102.23,17.4634 105.23,21.4634 107.5,26C 109.695,27.373 112.029,27.7063 114.5,27C 123.32,18.3459 131.987,9.5126 140.5,0.5C 151.15,9.31614 160.983,18.9828 170,29.5C 170.667,31.1667 170.667,32.8333 170,34.5C 167.079,36.7121 163.912,38.5455 160.5,40C 156.813,43.196 156.647,46.696 160,50.5C 163.534,54.3689 167.367,57.8689 171.5,61C 175.26,62.1762 178.093,61.0096 180,57.5C 181.197,54.9109 182.197,52.2442 183,49.5C 184.062,48.1007 185.395,47.1007 187,46.5C 190.305,47.1442 193.138,48.6442 195.5,51C 200.738,56.7423 206.404,61.909 212.5,66.5 Z"/></g>
<g><path style="opacity:0.983" fill="#f4f9f4" d="M 136.5,-0.5 C 139.167,-0.5 141.833,-0.5 144.5,-0.5C 145.794,1.90699 147.461,4.07365 149.5,6C 159.333,11.8333 167.167,19.6667 173,29.5C 173.857,32.5505 173.19,35.2172 171,37.5C 167.045,38.9774 163.378,40.9774 160,43.5C 159.333,44.5 159.333,45.5 160,46.5C 164.36,51.3605 169.194,55.6938 174.5,59.5C 175.478,59.0233 176.311,58.3567 177,57.5C 179.209,53.5007 181.042,49.334 182.5,45C 185.5,44.3333 188.5,44.3333 191.5,45C 200.22,51.4999 208.22,58.6666 215.5,66.5C 214.5,66.5 213.5,66.5 212.5,66.5C 206.404,61.909 200.738,56.7423 195.5,51C 193.138,48.6442 190.305,47.1442 187,46.5C 185.395,47.1007 184.062,48.1007 183,49.5C 182.197,52.2442 181.197,54.9109 180,57.5C 178.093,61.0096 175.26,62.1762 171.5,61C 167.367,57.8689 163.534,54.3689 160,50.5C 156.647,46.696 156.813,43.196 160.5,40C 163.912,38.5455 167.079,36.7121 170,34.5C 170.667,32.8333 170.667,31.1667 170,29.5C 160.983,18.9828 151.15,9.31614 140.5,0.5C 131.987,9.5126 123.32,18.3459 114.5,27C 112.029,27.7063 109.695,27.373 107.5,26C 105.23,21.4634 102.23,17.4634 98.5,14C 96.8333,13.3333 95.1667,13.3333 93.5,14C 86.7103,18.0636 83.5436,23.897 84,31.5C 87.6963,32.9546 91.1963,34.788 94.5,37C 99.6526,40.93 99.8192,45.0967 95,49.5C 91.2684,53.0622 87.7684,56.7288 84.5,60.5C 81.6967,60.9613 79.3634,62.2947 77.5,64.5C 83.9876,57.5098 90.3209,50.3431 96.5,43C 95.8993,41.395 94.8993,40.0616 93.5,39C 90.7558,38.1965 88.0891,37.1965 85.5,36C 80.9315,33.4586 79.4315,29.6253 81,24.5C 82.9892,19.1681 86.4892,15.0015 91.5,12C 100.203,9.36644 105.37,12.5331 107,21.5C 108.972,22.3052 110.472,23.6385 111.5,25.5C 120.5,17.4993 128.834,8.83263 136.5,-0.5 Z"/></g>
<g><path style="opacity:1" fill="#0481c2" d="M 82.5,220.5 C 81.1634,221.315 80.1634,222.482 79.5,224C 78.5,224.667 77.5,224.667 76.5,224C 66.5432,213.867 55.8766,204.7 44.5,196.5C 42.2723,197.219 40.439,198.552 39,200.5C 37.4964,203.684 35.9964,206.851 34.5,210C 30.5163,211.686 26.8497,211.019 23.5,208C 19.9414,205.455 17.6081,202.121 16.5,198C 16.6431,195.849 17.6431,194.182 19.5,193C 23.2743,191.698 26.441,189.531 29,186.5C 29.6256,184.287 29.4589,182.12 28.5,180C 18.7039,171.371 9.37061,162.205 0.5,152.5C 9.34088,142.16 18.6742,132.327 28.5,123C 29.5,122.333 30.5,122.333 31.5,123C 34.7084,127.247 37.5417,131.747 40,136.5C 42.9378,138.869 46.1044,139.036 49.5,137C 55.3812,132.46 59.7146,126.794 62.5,120C 61.6242,117.121 59.9576,114.787 57.5,113C 52.2352,112.217 48.2352,109.717 45.5,105.5C 46.4295,103.394 47.5962,101.394 49,99.5C 54.3377,93.3299 59.8377,87.3299 65.5,81.5C 66.8381,79.8872 68.5048,79.3872 70.5,80C 78.8696,88.0383 87.5363,95.705 96.5,103C 98.5,103.667 100.5,103.667 102.5,103C 105.762,98.47 108.762,93.8034 111.5,89C 114.93,88.5407 117.93,89.5407 120.5,92C 124.891,95.2154 127.891,99.382 129.5,104.5C 128.219,108.273 125.553,110.44 121.5,111C 117.848,113.274 116.015,116.441 116,120.5C 125.35,131.35 135.517,141.35 146.5,150.5C 138.993,159.505 130.993,168.005 122.5,176C 121.056,176.781 119.723,176.614 118.5,175.5C 111.061,161.605 102.561,160.938 93,173.5C 87.8732,178.993 88.5399,183.66 95,187.5C 99.2567,188.229 102.423,190.396 104.5,194C 103.722,196.39 102.555,198.557 101,200.5C 94.9953,207.337 88.8287,214.004 82.5,220.5 Z"/></g>
<g><path style="opacity:0.998" fill="#ecf3f5" d="M 84.5,60.5 C 80.8704,64.631 77.037,68.631 73,72.5C 72.0181,73.7589 71.6848,75.0922 72,76.5C 79.8333,83.6667 87.6667,90.8333 95.5,98C 97.5,98.6667 99.5,98.6667 101.5,98C 103.333,94.1667 105.167,90.3333 107,86.5C 109.003,84.0779 111.503,83.2446 114.5,84C 120.871,87.3652 126.371,91.8652 131,97.5C 135.816,102.231 135.649,106.731 130.5,111C 126.233,112.296 122.9,114.796 120.5,118.5C 124.228,124.734 128.895,130.234 134.5,135C 139.354,139.355 144.354,143.522 149.5,147.5C 159.013,137.487 168.68,127.654 178.5,118C 180.167,117.333 181.833,117.333 183.5,118C 187.079,122.491 190.412,127.157 193.5,132C 195.5,132.667 197.5,132.667 199.5,132C 205.723,128.777 210.223,123.943 213,117.5C 213.682,113.82 212.182,111.32 208.5,110C 204.735,108.951 201.068,107.618 197.5,106C 195.876,104.883 194.876,103.383 194.5,101.5C 195.767,99.0565 197.267,96.7231 199,94.5C 206.331,87.7043 212.664,80.371 218,72.5C 215.96,70.6298 214.127,68.6298 212.5,66.5C 213.5,66.5 214.5,66.5 215.5,66.5C 217.599,68.587 219.265,70.9203 220.5,73.5C 221.873,73.3433 223.207,73.51 224.5,74C 232.779,81.6125 240.779,89.6125 248.5,98C 250.134,98.4935 251.801,98.6602 253.5,98.5C 254.941,79.8747 262.941,76.0414 277.5,87C 289.864,99.1652 287.864,107.832 271.5,113C 270.643,113.689 269.977,114.522 269.5,115.5C 279.507,124.835 289.507,134.168 299.5,143.5C 299.5,146.167 299.5,148.833 299.5,151.5C 292.501,157.778 286.168,164.778 280.5,172.5C 276.839,177.045 272.172,178.545 266.5,177C 263.895,172.583 261.562,168.083 259.5,163.5C 258.448,163.351 257.448,163.517 256.5,164C 252.264,168.066 248.597,172.566 245.5,177.5C 245.608,178.442 245.941,179.275 246.5,180C 250.531,181.432 254.364,183.266 258,185.5C 258.667,188.833 258.667,192.167 258,195.5C 249.265,204.73 240.765,214.063 232.5,223.5C 230.833,223.5 229.167,223.5 227.5,223.5C 227.657,224.873 227.49,226.207 227,227.5C 226.617,226.944 226.117,226.611 225.5,226.5C 225.611,225.883 225.944,225.383 226.5,225C 220.5,219 214.5,213 208.5,207C 206.14,204.647 203.473,202.647 200.5,201C 198.5,200.333 196.5,200.333 194.5,201C 192.873,203.754 191.373,206.588 190,209.5C 188.159,212.178 185.659,213.845 182.5,214.5C 176.266,210.772 170.766,206.105 166,200.5C 164.682,197.594 164.348,194.594 165,191.5C 167.727,188.269 170.894,185.603 174.5,183.5C 175.641,181.579 175.808,179.579 175,177.5C 166.997,169.163 158.663,161.163 150,153.5C 141.809,162.69 133.309,171.523 124.5,180C 122.167,180.667 119.833,180.667 117.5,180C 114.5,176.333 111.5,172.667 108.5,169C 103.518,168.24 99.6846,170.073 97,174.5C 94.9286,176.455 94.2619,178.788 95,181.5C 99.3333,184.5 103.667,187.5 108,190.5C 109.301,192.365 109.635,194.365 109,196.5C 100.635,206.36 92.1348,216.027 83.5,225.5C 83.33,224.178 83.6634,223.011 84.5,222C 83.9558,221.283 83.2891,220.783 82.5,220.5C 88.8287,214.004 94.9953,207.337 101,200.5C 102.555,198.557 103.722,196.39 104.5,194C 102.423,190.396 99.2567,188.229 95,187.5C 88.5399,183.66 87.8732,178.993 93,173.5C 102.561,160.938 111.061,161.605 118.5,175.5C 119.723,176.614 121.056,176.781 122.5,176C 130.993,168.005 138.993,159.505 146.5,150.5C 135.517,141.35 125.35,131.35 116,120.5C 116.015,116.441 117.848,113.274 121.5,111C 125.553,110.44 128.219,108.273 129.5,104.5C 127.891,99.382 124.891,95.2154 120.5,92C 117.93,89.5407 114.93,88.5407 111.5,89C 108.762,93.8034 105.762,98.47 102.5,103C 100.5,103.667 98.5,103.667 96.5,103C 87.5363,95.705 78.8696,88.0383 70.5,80C 68.5048,79.3872 66.8381,79.8872 65.5,81.5C 65.3893,80.8826 65.056,80.3826 64.5,80C 65.8228,79.1841 66.4894,78.0174 66.5,76.5C 70.0299,72.6254 73.6966,68.6254 77.5,64.5C 79.3634,62.2947 81.6967,60.9613 84.5,60.5 Z"/></g>
<g><path style="opacity:1" fill="#052865" d="M 220.5,75.5 C 230.479,83.514 240.145,92.014 249.5,101C 252.308,101.92 254.475,101.087 256,98.5C 257.71,94.2891 259.043,89.9557 260,85.5C 262.243,83.718 264.743,83.218 267.5,84C 273.738,87.028 278.571,91.528 282,97.5C 282.667,99.8333 282.667,102.167 282,104.5C 277.044,107.137 272.377,110.137 268,113.5C 267.333,114.833 267.333,116.167 268,117.5C 277.987,127.654 288.154,137.654 298.5,147.5C 293.854,153.314 289.021,158.98 284,164.5C 280.466,168.369 276.633,171.869 272.5,175C 271.5,175.667 270.5,175.667 269.5,175C 266.928,171.759 264.761,168.259 263,164.5C 260.997,162.078 258.497,161.245 255.5,162C 250.548,165.71 246.381,170.21 243,175.5C 242.254,178.789 243.42,181.289 246.5,183C 249.912,184.455 253.079,186.288 256,188.5C 256.667,189.833 256.667,191.167 256,192.5C 248.342,203.321 239.509,212.987 229.5,221.5C 219.046,212.885 208.713,204.052 198.5,195C 195.692,194.08 193.525,194.913 192,197.5C 190.209,201.536 188.042,205.369 185.5,209C 183.833,209.667 182.167,209.667 180.5,209C 175.716,206.55 171.883,203.05 169,198.5C 168.333,196.5 168.333,194.5 169,192.5C 173.141,189.755 177.141,186.755 181,183.5C 181.667,181.833 181.667,180.167 181,178.5C 171.626,168.958 162.126,159.625 152.5,150.5C 160.982,140.85 169.649,131.35 178.5,122C 179.833,121.333 181.167,121.333 182.5,122C 185.588,126.843 188.921,131.509 192.5,136C 195.167,136.667 197.833,136.667 200.5,136C 205.946,131.888 210.779,127.054 215,121.5C 218.722,116.21 217.888,111.71 212.5,108C 208.91,106.47 205.243,105.136 201.5,104C 200.484,103.481 199.818,102.647 199.5,101.5C 201.04,97.7865 203.207,94.4532 206,91.5C 211.41,86.595 216.243,81.2617 220.5,75.5 Z"/></g>
<g><path style="opacity:0.986" fill="#f3f9f5" d="M 66.5,76.5 C 66.4894,78.0174 65.8228,79.1841 64.5,80C 65.056,80.3826 65.3893,80.8826 65.5,81.5C 59.8377,87.3299 54.3377,93.3299 49,99.5C 47.5962,101.394 46.4295,103.394 45.5,105.5C 48.2352,109.717 52.2352,112.217 57.5,113C 59.9576,114.787 61.6242,117.121 62.5,120C 59.7146,126.794 55.3812,132.46 49.5,137C 46.1044,139.036 42.9378,138.869 40,136.5C 37.5417,131.747 34.7084,127.247 31.5,123C 30.5,122.333 29.5,122.333 28.5,123C 18.6742,132.327 9.34088,142.16 0.5,152.5C 9.37061,162.205 18.7039,171.371 28.5,180C 29.4589,182.12 29.6256,184.287 29,186.5C 26.441,189.531 23.2743,191.698 19.5,193C 17.6431,194.182 16.6431,195.849 16.5,198C 17.6081,202.121 19.9414,205.455 23.5,208C 26.8497,211.019 30.5163,211.686 34.5,210C 35.9964,206.851 37.4964,203.684 39,200.5C 40.439,198.552 42.2723,197.219 44.5,196.5C 55.8766,204.7 66.5432,213.867 76.5,224C 77.5,224.667 78.5,224.667 79.5,224C 80.1634,222.482 81.1634,221.315 82.5,220.5C 83.2891,220.783 83.9558,221.283 84.5,222C 83.6634,223.011 83.33,224.178 83.5,225.5C 81.7274,226.314 81.2274,227.648 82,229.5C 88.8025,235.301 95.3025,241.468 101.5,248C 103.56,249.696 105.893,250.863 108.5,251.5C 109.442,251.392 110.275,251.059 111,250.5C 112.565,244.87 115.065,239.703 118.5,235C 121.594,234.348 124.594,234.682 127.5,236C 132,240.5 136.5,245 141,249.5C 143.223,253.388 142.723,256.888 139.5,260C 135.684,261.409 132.017,263.076 128.5,265C 127.196,265.804 126.529,266.971 126.5,268.5C 128.975,272.142 131.642,275.642 134.5,279C 142.34,285.344 150.007,291.844 157.5,298.5C 158.554,298.32 159.554,297.987 160.5,297.5C 168.952,287.546 177.952,278.046 187.5,269C 189.167,268.333 190.833,268.333 192.5,269C 195.749,273.497 198.749,278.163 201.5,283C 207.937,283.396 213.104,280.896 217,275.5C 219.359,272.081 220.692,268.414 221,264.5C 219.786,262.951 218.286,261.785 216.5,261C 212.991,260.578 209.657,259.578 206.5,258C 204.876,256.883 203.876,255.383 203.5,253.5C 204.361,250.473 205.861,247.806 208,245.5C 214.039,239.297 219.873,232.963 225.5,226.5C 226.117,226.611 226.617,226.944 227,227.5C 227.49,226.207 227.657,224.873 227.5,223.5C 229.167,223.5 230.833,223.5 232.5,223.5C 231.432,224.434 230.099,224.768 228.5,224.5C 223.793,232.076 217.959,239.076 211,245.5C 209.269,248.268 207.436,250.935 205.5,253.5C 205.977,254.478 206.643,255.311 207.5,256C 225.145,258.015 228.311,265.848 217,279.5C 205.15,290.632 197.15,288.299 193,272.5C 191.867,270.789 190.367,270.289 188.5,271C 179.621,280.376 170.954,289.876 162.5,299.5C 158.514,301.044 154.847,300.544 151.5,298C 142.944,289.108 134.11,280.608 125,272.5C 124.333,269.833 124.333,267.167 125,264.5C 129.26,261.692 133.76,259.359 138.5,257.5C 139.183,251.455 136.85,246.622 131.5,243C 128.442,241.782 125.776,239.949 123.5,237.5C 122.277,236.386 120.944,236.219 119.5,237C 117.421,242.164 115.421,247.331 113.5,252.5C 106.175,254.56 100.508,252.393 96.5,246C 90.0981,241.605 84.2648,236.439 79,230.5C 78.51,229.207 78.3433,227.873 78.5,226.5C 77.1266,226.657 75.7932,226.49 74.5,226C 73.4495,224.615 72.1161,223.615 70.5,223C 63.2624,214.666 55.5957,207 47.5,200C 44.975,199.104 42.8083,199.604 41,201.5C 40.0017,205.748 38.1684,209.581 35.5,213C 30.816,214.102 26.4826,213.436 22.5,211C 20.5526,207.93 18.0526,205.43 15,203.5C 12.8993,199.549 13.066,195.716 15.5,192C 19.6087,190.199 23.442,188.032 27,185.5C 27.1805,183.512 27.0138,181.512 26.5,179.5C 22.841,178.685 20.1744,176.519 18.5,173C 17.5,172.667 16.5,172.333 15.5,172C 9.99115,166.658 4.65781,161.158 -0.5,155.5C -0.5,153.167 -0.5,150.833 -0.5,148.5C 8.08114,139.032 17.0811,129.866 26.5,121C 28.8333,120.333 31.1667,120.333 33.5,121C 35.3589,122.558 36.8589,124.391 38,126.5C 39.4992,137.554 44.1658,139.221 52,131.5C 54.378,128.161 56.7114,124.827 59,121.5C 59.9201,118.692 59.0867,116.525 56.5,115C 52.099,114.089 47.9324,112.589 44,110.5C 43.3333,107.5 43.3333,104.5 44,101.5C 51.7358,93.2702 59.2358,84.9369 66.5,76.5 Z"/></g>
<g><path style="opacity:1" fill="#0581c2" d="M 225.5,226.5 C 219.873,232.963 214.039,239.297 208,245.5C 205.861,247.806 204.361,250.473 203.5,253.5C 203.876,255.383 204.876,256.883 206.5,258C 209.657,259.578 212.991,260.578 216.5,261C 218.286,261.785 219.786,262.951 221,264.5C 220.692,268.414 219.359,272.081 217,275.5C 213.104,280.896 207.937,283.396 201.5,283C 198.749,278.163 195.749,273.497 192.5,269C 190.833,268.333 189.167,268.333 187.5,269C 177.952,278.046 168.952,287.546 160.5,297.5C 159.554,297.987 158.554,298.32 157.5,298.5C 150.007,291.844 142.34,285.344 134.5,279C 131.642,275.642 128.975,272.142 126.5,268.5C 126.529,266.971 127.196,265.804 128.5,265C 132.017,263.076 135.684,261.409 139.5,260C 142.723,256.888 143.223,253.388 141,249.5C 136.5,245 132,240.5 127.5,236C 124.594,234.682 121.594,234.348 118.5,235C 115.065,239.703 112.565,244.87 111,250.5C 110.275,251.059 109.442,251.392 108.5,251.5C 105.893,250.863 103.56,249.696 101.5,248C 95.3025,241.468 88.8025,235.301 82,229.5C 81.2274,227.648 81.7274,226.314 83.5,225.5C 92.1348,216.027 100.635,206.36 109,196.5C 109.635,194.365 109.301,192.365 108,190.5C 103.667,187.5 99.3333,184.5 95,181.5C 94.2619,178.788 94.9286,176.455 97,174.5C 99.6846,170.073 103.518,168.24 108.5,169C 111.5,172.667 114.5,176.333 117.5,180C 119.833,180.667 122.167,180.667 124.5,180C 133.309,171.523 141.809,162.69 150,153.5C 158.663,161.163 166.997,169.163 175,177.5C 175.808,179.579 175.641,181.579 174.5,183.5C 170.894,185.603 167.727,188.269 165,191.5C 164.348,194.594 164.682,197.594 166,200.5C 170.766,206.105 176.266,210.772 182.5,214.5C 185.659,213.845 188.159,212.178 190,209.5C 191.373,206.588 192.873,203.754 194.5,201C 196.5,200.333 198.5,200.333 200.5,201C 203.473,202.647 206.14,204.647 208.5,207C 214.5,213 220.5,219 226.5,225C 225.944,225.383 225.611,225.883 225.5,226.5 Z"/></g>
<g><path style="opacity:0.072" fill="#fffec0" d="M 299.5,151.5 C 299.5,153.167 299.5,154.833 299.5,156.5C 292.7,163.47 286.033,170.636 279.5,178C 274.657,180.835 269.657,181.168 264.5,179C 262.266,175.344 259.932,171.844 257.5,168.5C 253.562,171.143 251.229,174.477 250.5,178.5C 261.913,181.769 264.746,188.769 259,199.5C 250.703,210.131 241.37,219.798 231,228.5C 224.354,236.647 217.521,244.647 210.5,252.5C 214.829,254.225 219.162,256.058 223.5,258C 224.701,258.903 225.535,260.069 226,261.5C 227.165,274 221.998,282.834 210.5,288C 206.5,290 202.5,290 198.5,288C 195.132,284.098 192.132,279.931 189.5,275.5C 182.348,283.152 175.015,290.652 167.5,298C 174.317,297.694 179.15,300.528 182,306.5C 182.073,314.137 182.239,321.637 182.5,329C 182.648,333.02 181.981,336.853 180.5,340.5C 178.5,340.5 176.5,340.5 174.5,340.5C 176.521,338.968 178.021,336.968 179,334.5C 178.887,327.463 179.054,320.463 179.5,313.5C 180.345,307.684 178.012,303.851 172.5,302C 166.175,301.5 159.842,301.334 153.5,301.5C 153.5,314.5 153.5,327.5 153.5,340.5C 152.5,340.5 151.5,340.5 150.5,340.5C 150.667,327.163 150.5,313.829 150,300.5C 144.167,295.333 138.333,290.167 132.5,285C 128.248,281.419 124.748,277.252 122,272.5C 121.183,269.036 121.517,265.702 123,262.5C 126.297,259.433 130.131,257.267 134.5,256C 136.947,254.771 137.113,253.271 135,251.5C 131.278,247.275 127.112,243.608 122.5,240.5C 119.754,245.53 117.087,250.697 114.5,256C 109.232,257.068 104.232,256.401 99.5,254C 81.7739,236.953 63.7739,220.12 45.5,203.5C 42.8798,207.894 39.8798,212.06 36.5,216C 31.2317,217.068 26.2317,216.401 21.5,214C 18.3333,210.833 15.1667,207.667 12,204.5C 10.1053,200.148 10.1053,195.815 12,191.5C 15.9224,188.789 19.7557,185.955 23.5,183C 15.6291,175.626 7.62912,168.459 -0.5,161.5C -0.5,159.5 -0.5,157.5 -0.5,155.5C 4.65781,161.158 9.99115,166.658 15.5,172C 16.5,172.333 17.5,172.667 18.5,173C 20.1744,176.519 22.841,178.685 26.5,179.5C 27.0138,181.512 27.1805,183.512 27,185.5C 23.442,188.032 19.6087,190.199 15.5,192C 13.066,195.716 12.8993,199.549 15,203.5C 18.0526,205.43 20.5526,207.93 22.5,211C 26.4826,213.436 30.816,214.102 35.5,213C 38.1684,209.581 40.0017,205.748 41,201.5C 42.8083,199.604 44.975,199.104 47.5,200C 55.5957,207 63.2624,214.666 70.5,223C 72.1161,223.615 73.4495,224.615 74.5,226C 75.7932,226.49 77.1266,226.657 78.5,226.5C 78.3433,227.873 78.51,229.207 79,230.5C 84.2648,236.439 90.0981,241.605 96.5,246C 100.508,252.393 106.175,254.56 113.5,252.5C 115.421,247.331 117.421,242.164 119.5,237C 120.944,236.219 122.277,236.386 123.5,237.5C 125.776,239.949 128.442,241.782 131.5,243C 136.85,246.622 139.183,251.455 138.5,257.5C 133.76,259.359 129.26,261.692 125,264.5C 124.333,267.167 124.333,269.833 125,272.5C 134.11,280.608 142.944,289.108 151.5,298C 154.847,300.544 158.514,301.044 162.5,299.5C 170.954,289.876 179.621,280.376 188.5,271C 190.367,270.289 191.867,270.789 193,272.5C 197.15,288.299 205.15,290.632 217,279.5C 228.311,265.848 225.145,258.015 207.5,256C 206.643,255.311 205.977,254.478 205.5,253.5C 207.436,250.935 209.269,248.268 211,245.5C 217.959,239.076 223.793,232.076 228.5,224.5C 230.099,224.768 231.432,224.434 232.5,223.5C 240.765,214.063 249.265,204.73 258,195.5C 258.667,192.167 258.667,188.833 258,185.5C 254.364,183.266 250.531,181.432 246.5,180C 245.941,179.275 245.608,178.442 245.5,177.5C 248.597,172.566 252.264,168.066 256.5,164C 257.448,163.517 258.448,163.351 259.5,163.5C 261.562,168.083 263.895,172.583 266.5,177C 272.172,178.545 276.839,177.045 280.5,172.5C 286.168,164.778 292.501,157.778 299.5,151.5 Z M 164.5,312.5 C 165.978,312.238 167.311,312.571 168.5,313.5C 167.833,313.833 167.167,314.167 166.5,314.5C 165.287,314.253 164.62,313.586 164.5,312.5 Z M 164.5,328.5 C 168.588,328.218 169.088,328.885 166,330.5C 164.97,330.164 164.47,329.497 164.5,328.5 Z"/></g>
<g><path style="opacity:0.112" fill="#fffebe" d="M 45.5,340.5 C 43.5,340.5 41.5,340.5 39.5,340.5C 45.7488,335.39 47.0821,329.057 43.5,321.5C 46.182,315.783 46.0153,310.116 43,304.5C 41.5806,303.54 40.0806,302.707 38.5,302C 32.1754,301.5 25.8421,301.334 19.5,301.5C 19.5,314.5 19.5,327.5 19.5,340.5C 18.5,340.5 17.5,340.5 16.5,340.5C 16.3334,326.829 16.5001,313.163 17,299.5C 24.4201,298.353 31.9201,298.187 39.5,299C 42.6251,299.979 45.1251,301.813 47,304.5C 48.1654,312.646 48.6654,320.813 48.5,329C 48.6126,333.156 47.6126,336.989 45.5,340.5 Z M 29.5,312.5 C 30.9778,312.238 32.3112,312.571 33.5,313.5C 32.8333,313.833 32.1667,314.167 31.5,314.5C 30.2867,314.253 29.62,313.586 29.5,312.5 Z M 29.5,328.5 C 30.9778,328.238 32.3112,328.571 33.5,329.5C 32.8333,329.833 32.1667,330.167 31.5,330.5C 30.2867,330.253 29.62,329.586 29.5,328.5 Z"/></g>
<g><path style="opacity:0.1" fill="#fffebf" d="M 213.5,340.5 C 212.5,340.5 211.5,340.5 210.5,340.5C 211.906,335.069 209.906,332.735 204.5,333.5C 204.5,323.5 204.5,313.5 204.5,303.5C 200.154,303.334 195.821,303.501 191.5,304C 190.565,306.381 190.232,308.881 190.5,311.5C 192.5,311.5 194.5,311.5 196.5,311.5C 196.5,318.833 196.5,326.167 196.5,333.5C 191.094,332.735 189.094,335.069 190.5,340.5C 189.5,340.5 188.5,340.5 187.5,340.5C 187.336,337.813 187.503,335.146 188,332.5C 189.444,330.845 191.278,330.178 193.5,330.5C 193.828,325.125 193.495,319.792 192.5,314.5C 190.941,313.926 189.441,313.26 188,312.5C 184.892,303.546 187.892,299.546 197,300.5C 199.5,300.667 202,300.833 204.5,301C 205.701,301.903 206.535,303.069 207,304.5C 207.5,313.16 207.666,321.827 207.5,330.5C 209.582,330.472 211.416,331.139 213,332.5C 213.497,335.146 213.664,337.813 213.5,340.5 Z"/></g>
<g><path style="opacity:0.986" fill="#fafbf9" d="M 39.5,340.5 C 32.8333,340.5 26.1667,340.5 19.5,340.5C 19.5,327.5 19.5,314.5 19.5,301.5C 25.8421,301.334 32.1754,301.5 38.5,302C 40.0806,302.707 41.5806,303.54 43,304.5C 46.0153,310.116 46.182,315.783 43.5,321.5C 47.0821,329.057 45.7488,335.39 39.5,340.5 Z M 29.5,312.5 C 29.62,313.586 30.2867,314.253 31.5,314.5C 32.1667,314.167 32.8333,313.833 33.5,313.5C 32.3112,312.571 30.9778,312.238 29.5,312.5 Z M 29.5,328.5 C 29.62,329.586 30.2867,330.253 31.5,330.5C 32.1667,330.167 32.8333,329.833 33.5,329.5C 32.3112,328.571 30.9778,328.238 29.5,328.5 Z"/></g>
<g><path style="opacity:0.988" fill="#fbfbf9" d="M 174.5,340.5 C 167.5,340.5 160.5,340.5 153.5,340.5C 153.5,327.5 153.5,314.5 153.5,301.5C 159.842,301.334 166.175,301.5 172.5,302C 178.012,303.851 180.345,307.684 179.5,313.5C 179.054,320.463 178.887,327.463 179,334.5C 178.021,336.968 176.521,338.968 174.5,340.5 Z M 164.5,312.5 C 164.62,313.586 165.287,314.253 166.5,314.5C 167.167,314.167 167.833,313.833 168.5,313.5C 167.311,312.571 165.978,312.238 164.5,312.5 Z M 164.5,328.5 C 164.47,329.497 164.97,330.164 166,330.5C 169.088,328.885 168.588,328.218 164.5,328.5 Z"/></g>
<g><path style="opacity:0.088" fill="#fffebf" d="M 113.5,340.5 C 111.833,340.5 110.167,340.5 108.5,340.5C 109.469,339.691 110.302,338.691 111,337.5C 111.497,334.854 111.664,332.187 111.5,329.5C 109.167,329.5 106.833,329.5 104.5,329.5C 104.5,330.833 104.5,332.167 104.5,333.5C 102.833,333.5 101.167,333.5 99.5,333.5C 99.5,329.167 99.5,324.833 99.5,320.5C 102.833,320.5 106.167,320.5 109.5,320.5C 109.5,317.833 109.5,315.167 109.5,312.5C 106.167,312.5 102.833,312.5 99.5,312.5C 99.5,310.167 99.5,307.833 99.5,305.5C 96.8333,305.5 94.1667,305.5 91.5,305.5C 91.5,307.833 91.5,310.167 91.5,312.5C 90.1667,312.5 88.8333,312.5 87.5,312.5C 87.5,315.167 87.5,317.833 87.5,320.5C 88.8333,320.5 90.1667,320.5 91.5,320.5C 91.3338,326.509 91.5005,332.509 92,338.5C 92.7172,339.044 93.2172,339.711 93.5,340.5C 92.1667,340.5 90.8333,340.5 89.5,340.5C 88.8116,334.866 88.3116,329.199 88,323.5C 85.0388,322.183 83.8722,319.849 84.5,316.5C 84.6667,314.833 84.8333,313.167 85,311.5C 86.0113,310.663 87.1779,310.33 88.5,310.5C 87.3295,304.674 89.6628,302.007 95.5,302.5C 100.651,301.866 102.984,304.199 102.5,309.5C 111.958,308.902 114.958,313.068 111.5,322C 108.649,323.289 105.649,323.789 102.5,323.5C 102.238,324.978 102.571,326.311 103.5,327.5C 107.19,326.004 110.69,326.337 114,328.5C 114.762,332.587 114.596,336.587 113.5,340.5 Z"/></g>
<g><path style="opacity:1" fill="#1b346f" d="M 21.5,303.5 C 27.5771,303.196 33.5771,303.696 39.5,305C 44.4965,310.172 44.8298,315.672 40.5,321.5C 44.7793,327.649 44.1126,333.149 38.5,338C 32.8431,338.499 27.1764,338.666 21.5,338.5C 21.5,326.833 21.5,315.167 21.5,303.5 Z M 29.5,312.5 C 29.62,313.586 30.2867,314.253 31.5,314.5C 32.1667,314.167 32.8333,313.833 33.5,313.5C 32.3112,312.571 30.9778,312.238 29.5,312.5 Z M 29.5,328.5 C 29.62,329.586 30.2867,330.253 31.5,330.5C 32.1667,330.167 32.8333,329.833 33.5,329.5C 32.3112,328.571 30.9778,328.238 29.5,328.5 Z"/></g>
<g><path style="opacity:1" fill="#19336e" d="M 171.5,304.5 C 174.415,304.913 176.248,306.579 177,309.5C 177.812,313.67 177.312,317.67 175.5,321.5C 177.418,325.257 177.918,329.257 177,333.5C 176.167,335.667 174.667,337.167 172.5,338C 167.177,338.499 161.844,338.666 156.5,338.5C 156.5,327.167 156.5,315.833 156.5,304.5C 161.5,304.5 166.5,304.5 171.5,304.5 Z M 164.5,312.5 C 164.62,313.586 165.287,314.253 166.5,314.5C 167.167,314.167 167.833,313.833 168.5,313.5C 167.311,312.571 165.978,312.238 164.5,312.5 Z M 164.5,328.5 C 164.47,329.497 164.97,330.164 166,330.5C 169.088,328.885 168.588,328.218 164.5,328.5 Z"/></g>
<g><path style="opacity:0.997" fill="#eceeef" d="M 210.5,340.5 C 203.833,340.5 197.167,340.5 190.5,340.5C 189.094,335.069 191.094,332.735 196.5,333.5C 196.5,326.167 196.5,318.833 196.5,311.5C 194.5,311.5 192.5,311.5 190.5,311.5C 190.232,308.881 190.565,306.381 191.5,304C 195.821,303.501 200.154,303.334 204.5,303.5C 204.5,313.5 204.5,323.5 204.5,333.5C 209.906,332.735 211.906,335.069 210.5,340.5 Z"/></g>
<g><path style="opacity:1" fill="#16306c" d="M 197.5,335.5 C 198.825,331.555 199.492,327.222 199.5,322.5C 199.499,317.987 199.166,313.653 198.5,309.5C 196.621,308.659 194.621,308.325 192.5,308.5C 192.5,307.5 192.5,306.5 192.5,305.5C 195.5,305.5 198.5,305.5 201.5,305.5C 201.334,315.172 201.5,324.839 202,334.5C 204.041,335.423 206.208,335.756 208.5,335.5C 208.5,336.5 208.5,337.5 208.5,338.5C 203.167,338.5 197.833,338.5 192.5,338.5C 192.5,337.5 192.5,336.5 192.5,335.5C 194.167,335.5 195.833,335.5 197.5,335.5 Z"/></g>
<g><path style="opacity:0.997" fill="#f6f7f6" d="M 25.5,307.5 C 29.5138,307.334 33.5138,307.501 37.5,308C 40.1667,311.667 40.1667,315.333 37.5,319C 25.6288,322.913 21.6288,319.08 25.5,307.5 Z M 29.5,312.5 C 29.62,313.586 30.2867,314.253 31.5,314.5C 32.1667,314.167 32.8333,313.833 33.5,313.5C 32.3112,312.571 30.9778,312.238 29.5,312.5 Z"/></g>
<g><path style="opacity:1" fill="#587099" d="M 171.5,304.5 C 166.5,304.5 161.5,304.5 156.5,304.5C 156.5,315.833 156.5,327.167 156.5,338.5C 155.505,327.012 155.172,315.345 155.5,303.5C 161.026,303.179 166.36,303.512 171.5,304.5 Z"/></g>
<g><path style="opacity:0.996" fill="#f7f8f5" d="M 159.5,307.5 C 163.514,307.334 167.514,307.501 171.5,308C 175.5,311.667 175.5,315.333 171.5,319C 167.833,319.667 164.167,319.667 160.5,319C 159.54,315.27 159.207,311.437 159.5,307.5 Z M 164.5,312.5 C 164.62,313.586 165.287,314.253 166.5,314.5C 167.167,314.167 167.833,313.833 168.5,313.5C 167.311,312.571 165.978,312.238 164.5,312.5 Z"/></g>
<g><path style="opacity:0.164" fill="#fffec0" d="M 26.5,309.5 C 29.8499,309.335 33.1832,309.502 36.5,310C 37.9817,312.592 37.6483,314.925 35.5,317C 32.5184,317.498 29.5184,317.665 26.5,317.5C 26.5,314.833 26.5,312.167 26.5,309.5 Z M 29.5,312.5 C 29.62,313.586 30.2867,314.253 31.5,314.5C 32.1667,314.167 32.8333,313.833 33.5,313.5C 32.3112,312.571 30.9778,312.238 29.5,312.5 Z"/></g>
<g><path style="opacity:0.117" fill="#fffebe" d="M 81.5,340.5 C 80.5,340.5 79.5,340.5 78.5,340.5C 78.5,338.167 78.5,335.833 78.5,333.5C 72.648,333.949 66.9813,333.449 61.5,332C 67.1569,331.501 72.8236,331.334 78.5,331.5C 78.6658,326.821 78.4992,322.155 78,317.5C 72.4322,312.475 65.9322,311.142 58.5,313.5C 54.0386,317.249 52.372,322.082 53.5,328C 53.6667,331.167 53.8333,334.333 54,337.5C 55.1451,338.636 56.3117,339.636 57.5,340.5C 55.8333,340.5 54.1667,340.5 52.5,340.5C 52.0133,339.527 51.5133,338.527 51,337.5C 44.9137,314.928 53.0804,306.094 75.5,311C 77,312.5 78.5,314 80,315.5C 81.1643,323.819 81.6643,332.153 81.5,340.5 Z"/></g>
<g><path style="opacity:0.109" fill="#fffebe" d="M 148.5,340.5 C 147.5,340.5 146.5,340.5 145.5,340.5C 145.666,332.493 145.5,324.493 145,316.5C 143.833,315.333 142.667,314.167 141.5,313C 136.177,312.501 130.844,312.334 125.5,312.5C 125.5,315.167 125.5,317.833 125.5,320.5C 129.555,320.176 133.555,320.509 137.5,321.5C 121.493,319.488 116.493,325.821 122.5,340.5C 121.167,340.5 119.833,340.5 118.5,340.5C 117.504,335.537 117.337,330.537 118,325.5C 118.953,323.545 120.287,321.878 122,320.5C 122.333,317.5 122.667,314.5 123,311.5C 129.736,309.033 136.569,308.866 143.5,311C 144.667,312.167 145.833,313.333 147,314.5C 148.376,323.098 148.876,331.765 148.5,340.5 Z"/></g>
<g><path style="opacity:0.181" fill="#fffebf" d="M 161.5,309.5 C 164.518,309.335 167.518,309.502 170.5,310C 171.833,312.333 171.833,314.667 170.5,317C 167.518,317.498 164.518,317.665 161.5,317.5C 161.5,314.833 161.5,312.167 161.5,309.5 Z M 164.5,312.5 C 164.62,313.586 165.287,314.253 166.5,314.5C 167.167,314.167 167.833,313.833 168.5,313.5C 167.311,312.571 165.978,312.238 164.5,312.5 Z"/></g>
<g><path style="opacity:0.09" fill="#fffebe" d="M 245.5,312.5 C 243.208,312.244 241.041,312.577 239,313.5C 238.667,318.5 238.333,323.5 238,328.5C 235.768,331.24 232.935,332.907 229.5,333.5C 229.666,326.825 229.5,320.158 229,313.5C 226.619,312.565 224.119,312.232 221.5,312.5C 221.334,320.84 221.5,329.173 222,337.5C 222.513,338.527 223.013,339.527 223.5,340.5C 222.5,340.5 221.5,340.5 220.5,340.5C 218.287,330.936 217.954,321.269 219.5,311.5C 223.325,308.897 227.158,308.897 231,311.5C 231.579,317.208 232.412,322.875 233.5,328.5C 234.086,328.291 234.586,327.957 235,327.5C 235.159,322.084 235.826,316.75 237,311.5C 239.243,309.718 241.743,309.218 244.5,310C 245.252,310.671 245.586,311.504 245.5,312.5 Z"/></g>
<g><path style="opacity:1" fill="#4f6892" d="M 198.5,309.5 C 199.166,313.653 199.499,317.987 199.5,322.5C 199.492,327.222 198.825,331.555 197.5,335.5C 198.47,326.918 198.803,318.251 198.5,309.5 Z"/></g>
<g><path style="opacity:0.186" fill="#fffec5" d="M 281.5,339.5 C 279.948,337.965 278.615,336.131 277.5,334C 272.467,333.829 267.467,333.329 262.5,332.5C 268.261,332.101 273.761,331.101 279,329.5C 281.855,319.204 278.022,313.871 267.5,313.5C 262.769,313.056 258.936,314.722 256,318.5C 255.333,324.167 255.333,329.833 256,335.5C 261.099,338.854 260.599,340.187 254.5,339.5C 254.5,339.167 254.5,338.833 254.5,338.5C 254.5,337.833 254.167,337.5 253.5,337.5C 253.233,329.778 253.566,322.111 254.5,314.5C 255.793,312.704 257.293,311.037 259,309.5C 265.449,309.158 271.949,310.658 278.5,314C 280.081,315.828 281.415,317.828 282.5,320C 282.257,326.473 281.923,332.973 281.5,339.5 Z"/></g>
<g><path style="opacity:0.989" fill="#f4f5f2" d="M 245.5,312.5 C 246.167,312.5 246.5,312.833 246.5,313.5C 246.5,322.5 246.5,331.5 246.5,340.5C 238.833,340.5 231.167,340.5 223.5,340.5C 223.013,339.527 222.513,338.527 222,337.5C 221.5,329.173 221.334,320.84 221.5,312.5C 224.119,312.232 226.619,312.565 229,313.5C 229.5,320.158 229.666,326.825 229.5,333.5C 232.935,332.907 235.768,331.24 238,328.5C 238.333,323.5 238.667,318.5 239,313.5C 241.041,312.577 243.208,312.244 245.5,312.5 Z"/></g>
<g><path style="opacity:0.122" fill="#feffbd" d="M 246.5,313.5 C 247.15,313.804 247.817,314.137 248.5,314.5C 249.498,323.141 249.831,331.808 249.5,340.5C 248.5,340.5 247.5,340.5 246.5,340.5C 246.5,331.5 246.5,322.5 246.5,313.5 Z"/></g>
<g><path style="opacity:0.067" fill="#fefffe" d="M 254.5,314.5 C 253.566,322.111 253.233,329.778 253.5,337.5C 254.167,337.5 254.5,337.833 254.5,338.5C 254.5,338.833 254.5,339.167 254.5,339.5C 253.833,339.5 253.5,339.833 253.5,340.5C 253.167,340.5 252.833,340.5 252.5,340.5C 251.366,332.245 251.199,323.912 252,315.5C 252.671,314.748 253.504,314.414 254.5,314.5 Z"/></g>
<g><path style="opacity:0.986" fill="#f7f8f6" d="M 78.5,340.5 C 71.5,340.5 64.5,340.5 57.5,340.5C 56.3117,339.636 55.1451,338.636 54,337.5C 53.8333,334.333 53.6667,331.167 53.5,328C 52.372,322.082 54.0386,317.249 58.5,313.5C 65.9322,311.142 72.4322,312.475 78,317.5C 78.4992,322.155 78.6658,326.821 78.5,331.5C 72.8236,331.334 67.1569,331.501 61.5,332C 66.9813,333.449 72.648,333.949 78.5,333.5C 78.5,335.833 78.5,338.167 78.5,340.5 Z"/></g>
<g><path style="opacity:1" fill="#122f6b" d="M 63.5,335.5 C 67.7675,335.869 71.7675,336.869 75.5,338.5C 58.8488,342.348 52.3488,336.014 56,319.5C 57.1667,318.333 58.3333,317.167 59.5,316C 71.9429,312.515 77.6095,317.015 76.5,329.5C 70.8236,329.334 65.1569,329.501 59.5,330C 58.8803,332.925 60.2136,334.758 63.5,335.5 Z"/></g>
<g><path style="opacity:1" fill="#243a73" d="M 223.5,314.5 C 224.5,314.5 225.5,314.5 226.5,314.5C 226.974,321.163 227.474,327.829 228,334.5C 233.022,335.891 237.355,334.558 241,330.5C 241.171,325.136 241.671,319.802 242.5,314.5C 243.086,314.709 243.586,315.043 244,315.5C 244.5,323.159 244.666,330.826 244.5,338.5C 242.362,338.297 240.695,337.297 239.5,335.5C 234.812,338.968 229.979,339.301 225,336.5C 223.571,329.281 223.071,321.947 223.5,314.5 Z"/></g>
<g><path style="opacity:0.992" fill="#f1f3f5" d="M 61.5,318.5 C 64.5184,318.335 67.5184,318.502 70.5,319C 72.6246,320.737 73.458,322.904 73,325.5C 68.5868,326.632 64.0868,326.799 59.5,326C 58.4464,324.612 58.2797,323.112 59,321.5C 60.045,320.627 60.8783,319.627 61.5,318.5 Z"/></g>
<g><path style="opacity:0.265" fill="#fffec5" d="M 62.5,320.5 C 64.8568,320.337 67.1902,320.503 69.5,321C 70.1667,322 70.8333,323 71.5,324C 67.7887,324.825 64.122,324.659 60.5,323.5C 61.1925,322.482 61.8592,321.482 62.5,320.5 Z"/></g>
<g><path style="opacity:0.988" fill="#f7f8f5" d="M 145.5,340.5 C 137.833,340.5 130.167,340.5 122.5,340.5C 116.493,325.821 121.493,319.488 137.5,321.5C 133.555,320.509 129.555,320.176 125.5,320.5C 125.5,317.833 125.5,315.167 125.5,312.5C 130.844,312.334 136.177,312.501 141.5,313C 142.667,314.167 143.833,315.333 145,316.5C 145.5,324.493 145.666,332.493 145.5,340.5 Z"/></g>
<g><path style="opacity:1" fill="#1c356f" d="M 127.5,315.5 C 131.846,315.334 136.179,315.501 140.5,316C 141,316.5 141.5,317 142,317.5C 143.425,324.385 143.925,331.385 143.5,338.5C 141.61,338.703 140.11,338.037 139,336.5C 138.5,337 138,337.5 137.5,338C 133.5,338.667 129.5,338.667 125.5,338C 121.577,333.594 121.577,329.261 125.5,325C 129.833,324.667 134.167,324.333 138.5,324C 139.833,322.333 139.833,320.667 138.5,319C 134.848,318.501 131.182,318.335 127.5,318.5C 127.5,317.5 127.5,316.5 127.5,315.5 Z"/></g>
<g><path style="opacity:0.994" fill="#f0f2f3" d="M 25.5,322.5 C 29.6372,322.146 33.6372,322.646 37.5,324C 40.3658,327.943 40.0324,331.61 36.5,335C 32.8333,335.667 29.1667,335.667 25.5,335C 24.1968,330.834 24.1968,326.667 25.5,322.5 Z M 29.5,328.5 C 29.62,329.586 30.2867,330.253 31.5,330.5C 32.1667,330.167 32.8333,329.833 33.5,329.5C 32.3112,328.571 30.9778,328.238 29.5,328.5 Z"/></g>
<g><path style="opacity:0.994" fill="#eff1f1" d="M 160.5,322.5 C 165.849,321.461 170.349,322.795 174,326.5C 174.93,329.85 174.097,332.683 171.5,335C 167.833,335.667 164.167,335.667 160.5,335C 159.197,330.834 159.197,326.667 160.5,322.5 Z M 164.5,328.5 C 164.47,329.497 164.97,330.164 166,330.5C 169.088,328.885 168.588,328.218 164.5,328.5 Z"/></g>
<g><path style="opacity:0.159" fill="#fffec0" d="M 26.5,325.5 C 29.8499,325.335 33.1832,325.502 36.5,326C 37.9817,328.592 37.6483,330.925 35.5,333C 32.5184,333.498 29.5184,333.665 26.5,333.5C 26.5,330.833 26.5,328.167 26.5,325.5 Z M 29.5,328.5 C 29.62,329.586 30.2867,330.253 31.5,330.5C 32.1667,330.167 32.8333,329.833 33.5,329.5C 32.3112,328.571 30.9778,328.238 29.5,328.5 Z"/></g>
<g><path style="opacity:0.175" fill="#fffebe" d="M 161.5,325.5 C 164.518,325.335 167.518,325.502 170.5,326C 172.059,328.642 171.725,330.975 169.5,333C 166.854,333.497 164.187,333.664 161.5,333.5C 161.5,330.833 161.5,328.167 161.5,325.5 Z M 164.5,328.5 C 164.47,329.497 164.97,330.164 166,330.5C 169.088,328.885 168.588,328.218 164.5,328.5 Z"/></g>
<g><path style="opacity:0.999" fill="#e8ebef" d="M 127.5,327.5 C 131.182,327.335 134.848,327.501 138.5,328C 141.475,331.716 140.475,334.049 135.5,335C 132.833,335.667 130.167,335.667 127.5,335C 124.914,332.506 124.914,330.006 127.5,327.5 Z"/></g>
<g><path style="opacity:1" fill="#f9faf6" d="M 281.5,339.5 C 281.5,339.833 281.5,340.167 281.5,340.5C 272.5,340.5 263.5,340.5 254.5,340.5C 254.5,340.167 254.5,339.833 254.5,339.5C 260.599,340.187 261.099,338.854 256,335.5C 255.333,329.833 255.333,324.167 256,318.5C 258.936,314.722 262.769,313.056 267.5,313.5C 278.022,313.871 281.855,319.204 279,329.5C 273.761,331.101 268.261,332.101 262.5,332.5C 267.467,333.329 272.467,333.829 277.5,334C 278.615,336.131 279.948,337.965 281.5,339.5 Z"/></g>
<g><path style="opacity:1" fill="#5c729b" d="M 276.5,328.5 C 271.36,329.488 266.026,329.821 260.5,329.5C 260.261,331.467 260.594,333.301 261.5,335C 266.684,335.174 271.684,335.674 276.5,336.5C 271.637,336.181 266.97,336.514 262.5,337.5C 260.227,337.043 258.894,335.71 258.5,333.5C 259.451,332.081 259.784,330.415 259.5,328.5C 265.167,328.5 270.833,328.5 276.5,328.5 Z"/></g>
<g><path style="opacity:1" fill="#18326c" d="M 276.5,328.5 C 270.833,328.5 265.167,328.5 259.5,328.5C 259.784,330.415 259.451,332.081 258.5,333.5C 254.505,320.665 259.172,314.832 272.5,316C 277.319,319.147 278.652,323.314 276.5,328.5 Z"/></g>
<g><path style="opacity:0.493" fill="#f9fabc" d="M 262.5,319.5 C 265.85,319.335 269.183,319.502 272.5,320C 273.406,321.699 273.739,323.533 273.5,325.5C 269.5,325.5 265.5,325.5 261.5,325.5C 261.325,323.379 261.659,321.379 262.5,319.5 Z"/></g>
<g><path style="opacity:0.986" fill="#eef0f0" d="M 108.5,340.5 C 103.5,340.5 98.5,340.5 93.5,340.5C 93.2172,339.711 92.7172,339.044 92,338.5C 91.5005,332.509 91.3338,326.509 91.5,320.5C 90.1667,320.5 88.8333,320.5 87.5,320.5C 87.5,317.833 87.5,315.167 87.5,312.5C 88.8333,312.5 90.1667,312.5 91.5,312.5C 91.5,310.167 91.5,307.833 91.5,305.5C 94.1667,305.5 96.8333,305.5 99.5,305.5C 99.5,307.833 99.5,310.167 99.5,312.5C 102.833,312.5 106.167,312.5 109.5,312.5C 109.5,315.167 109.5,317.833 109.5,320.5C 106.167,320.5 102.833,320.5 99.5,320.5C 99.5,324.833 99.5,329.167 99.5,333.5C 101.167,333.5 102.833,333.5 104.5,333.5C 104.5,332.167 104.5,330.833 104.5,329.5C 106.833,329.5 109.167,329.5 111.5,329.5C 111.664,332.187 111.497,334.854 111,337.5C 110.302,338.691 109.469,339.691 108.5,340.5 Z"/></g>
<g><path style="opacity:1" fill="#1e3670" d="M 93.5,307.5 C 94.5,307.5 95.5,307.5 96.5,307.5C 96.2317,310.119 96.565,312.619 97.5,315C 110.562,316.412 110.395,317.912 97,319.5C 96.3333,324.167 96.3333,328.833 97,333.5C 99.4973,335.478 102.331,335.978 105.5,335C 106.337,333.989 106.67,332.822 106.5,331.5C 107.5,331.5 108.5,331.5 109.5,331.5C 109.896,334.044 109.229,336.211 107.5,338C 103.833,338.667 100.167,338.667 96.5,338C 95.6667,337.167 94.8333,336.333 94,335.5C 93.6667,330.167 93.3333,324.833 93,319.5C 91.9887,318.663 90.8221,318.33 89.5,318.5C 89.5,317.5 89.5,316.5 89.5,315.5C 90.8221,315.67 91.9887,315.337 93,314.5C 93.4966,312.19 93.6633,309.857 93.5,307.5 Z"/></g>
<g><path style="opacity:0.283" fill="#fffec7" d="M 128.5,329.5 C 131.572,329.183 134.572,329.516 137.5,330.5C 135.122,333.076 132.122,334.076 128.5,333.5C 128.5,332.167 128.5,330.833 128.5,329.5 Z"/></g>
<g><path style="opacity:1" fill="#4e6793" d="M 63.5,335.5 C 67.8333,335.5 72.1667,335.5 76.5,335.5C 76.7373,336.791 76.404,337.791 75.5,338.5C 71.7675,336.869 67.7675,335.869 63.5,335.5 Z"/></g>
<g><path style="opacity:1" fill="#15326d" d="M 276.5,336.5 C 277.738,336.81 277.738,337.31 276.5,338C 271.648,338.815 266.981,338.648 262.5,337.5C 266.97,336.514 271.637,336.181 276.5,336.5 Z"/></g>
</svg>
